<?xml version="1.0" standalone="no"?>
<svg xmlns:xlink="http://www.w3.org/1999/xlink" id="wave" style="transform:rotate(180deg); transition: 0.3s" viewBox="0 0 1440 100" version="1.1" xmlns="http://www.w3.org/2000/svg"><defs><linearGradient id="sw-gradient-0" x1="0" x2="0" y1="1" y2="0"><stop stop-color="rgba(255, 249, 234, 1)" offset="0%"/><stop stop-color="rgba(255, 249, 234, 1)" offset="100%"/></linearGradient></defs><path style="transform:translate(0, 0px); opacity:1" fill="url(#sw-gradient-0)" d="M0,10L40,18.3C80,27,160,43,240,53.3C320,63,400,67,480,63.3C560,60,640,50,720,50C800,50,880,60,960,60C1040,60,1120,50,1200,48.3C1280,47,1360,53,1440,60C1520,67,1600,73,1680,66.7C1760,60,1840,40,1920,28.3C2000,17,2080,13,2160,23.3C2240,33,2320,57,2400,60C2480,63,2560,47,2640,38.3C2720,30,2800,30,2880,28.3C2960,27,3040,23,3120,21.7C3200,20,3280,20,3360,21.7C3440,23,3520,27,3600,23.3C3680,20,3760,10,3840,10C3920,10,4000,20,4080,26.7C4160,33,4240,37,4320,46.7C4400,57,4480,73,4560,78.3C4640,83,4720,77,4800,61.7C4880,47,4960,23,5040,18.3C5120,13,5200,27,5280,36.7C5360,47,5440,53,5520,48.3C5600,43,5680,27,5720,18.3L5760,10L5760,100L5720,100C5680,100,5600,100,5520,100C5440,100,5360,100,5280,100C5200,100,5120,100,5040,100C4960,100,4880,100,4800,100C4720,100,4640,100,4560,100C4480,100,4400,100,4320,100C4240,100,4160,100,4080,100C4000,100,3920,100,3840,100C3760,100,3680,100,3600,100C3520,100,3440,100,3360,100C3280,100,3200,100,3120,100C3040,100,2960,100,2880,100C2800,100,2720,100,2640,100C2560,100,2480,100,2400,100C2320,100,2240,100,2160,100C2080,100,2000,100,1920,100C1840,100,1760,100,1680,100C1600,100,1520,100,1440,100C1360,100,1280,100,1200,100C1120,100,1040,100,960,100C880,100,800,100,720,100C640,100,560,100,480,100C400,100,320,100,240,100C160,100,80,100,40,100L0,100Z"/></svg>